<?xml version="1.0" encoding="utf-8"?>
<!-- Generator: Adobe Illustrator 23.0.3, SVG Export Plug-In . SVG Version: 6.00 Build 0)  -->
<svg version="1.1" id="Icons" xmlns="http://www.w3.org/2000/svg" xmlns:xlink="http://www.w3.org/1999/xlink" x="0px" y="0px"
	 viewBox="0 0 32 32" style="enable-background:new 0 0 32 32;" xml:space="preserve">
<style type="text/css">
	.st0{fill:none;stroke:#000000;stroke-width:2;stroke-linecap:round;stroke-linejoin:round;stroke-miterlimit:10;}
</style>
<g>
	<path d="M16.8,7.7c0.9,0,1.8,0.4,2.4,1.1c0.6,0.7,1.5,1.1,2.5,1.1c1,0,1.9-0.4,2.5-1.1c0.6-0.7,0.8-1.5,0.7-2.4
		C24.7,5,23.2,3.9,21.4,4c-1.7,0.1-3.3,0.7-4.5,1.8l-0.7,0.7C16,6.7,15.9,7,16.1,7.3C16.2,7.6,16.5,7.7,16.8,7.7z"/>
	<path d="M17.5,19.2l-3.7-2.3l4.6-4l1.9,1.9c0.2,0.2,0.4,0.3,0.7,0.3h5c0.6,0,1-0.4,1-1s-0.4-1-1-1h-4.6l-2.9-2.9
		c-1.4-1.4-3.6-1.5-5.1-0.2l-3.5,3C9.3,13.4,9,14.2,9.1,15c0.1,0.8,0.5,1.5,1.2,2l5.6,3.5l-1.8,5.3c-0.2,0.5,0.1,1.1,0.6,1.3
		c0.1,0,0.2,0.1,0.3,0.1c0.4,0,0.8-0.3,0.9-0.7l2-6C18.1,19.9,17.9,19.4,17.5,19.2z"/>
	<path d="M6,18c-3.3,0-6,2.7-6,6s2.7,6,6,6s6-2.7,6-6S9.3,18,6,18z M6,25c-0.6,0-1-0.5-1-1s0.5-1,1-1s1,0.5,1,1S6.6,25,6,25z"/>
	<path d="M26,18c-3.3,0-6,2.7-6,6s2.7,6,6,6s6-2.7,6-6S29.3,18,26,18z M26,25c-0.6,0-1-0.5-1-1s0.5-1,1-1s1,0.5,1,1S26.6,25,26,25z"
		/>
</g>
</svg>
