<?xml version="1.0" standalone="no"?>
<!DOCTYPE svg PUBLIC "-//W3C//DTD SVG 20010904//EN"
 "http://www.w3.org/TR/2001/REC-SVG-20010904/DTD/svg10.dtd">
<svg version="1.0" xmlns="http://www.w3.org/2000/svg"
 width="170.000000pt" height="93.000000pt" viewBox="0 0 170.000000 93.000000"
 preserveAspectRatio="xMidYMid meet">

<g transform="translate(0.000000,93.000000) scale(0.100000,-0.100000)"
fill="#000000" stroke="none">
<path d="M0 899 c0 -25 3 -30 18 -25 16 6 16 5 0 -8 -17 -12 -18 -45 -18 -440
l0 -426 850 0 850 0 0 193 0 194 -26 12 c-15 6 -24 14 -21 17 3 3 15 1 26 -6
18 -9 21 -8 21 11 0 12 -8 28 -17 34 -17 13 -17 14 0 32 20 23 22 52 5 57 -7
2 -60 10 -118 17 -164 20 -165 21 -33 52 65 16 128 30 141 33 22 4 22 7 22
144 l0 140 -108 0 c-73 0 -112 -4 -120 -12 -8 -8 -15 -9 -20 -3 -10 14 -497
19 -540 6 -19 -6 -30 -6 -27 0 8 13 -147 12 -220 -2 -43 -8 -60 -8 -63 0 -2 7
-36 11 -90 10 -48 0 -81 -3 -74 -6 6 -2 12 -11 12 -19 0 -10 -14 -14 -55 -14
-43 0 -55 3 -55 15 0 11 7 14 25 9 15 -4 25 -2 25 5 0 6 -16 11 -35 11 -24 0
-35 -5 -35 -15 0 -8 -4 -15 -10 -15 -5 0 -10 7 -10 15 0 13 -23 15 -150 15
l-150 0 0 -31z m867 15 c-3 -3 -12 -4 -19 -1 -8 3 -5 6 6 6 11 1 17 -2 13 -5z
m-757 -24 c-8 -5 -19 -10 -25 -10 -5 0 -3 5 5 10 8 5 20 10 25 10 6 0 3 -5 -5
-10z m660 0 c0 -5 -2 -10 -4 -10 -3 0 -8 5 -11 10 -3 6 -1 10 4 10 6 0 11 -4
11 -10z m-286 -35 c-4 -8 -7 -15 -9 -15 -2 0 -5 7 -9 15 -3 9 0 15 9 15 9 0
12 -6 9 -15z m71 -85 c3 -6 -1 -7 -9 -4 -18 7 -21 14 -7 14 6 0 13 -4 16 -10z
m415 -4 c0 -2 -7 -7 -16 -10 -8 -3 -12 -2 -9 4 6 10 25 14 25 6z m-230 -37
l25 -20 -25 7 c-14 5 -35 8 -48 7 -18 -1 -21 2 -11 13 16 19 29 17 59 -7z
m-108 -36 c-10 -28 -10 -28 -11 12 -1 28 2 36 10 28 8 -8 8 -19 1 -40z m308
29 c0 -10 -14 -33 -31 -51 -27 -30 -34 -33 -71 -28 -22 3 -48 12 -56 20 -13
14 -9 15 40 11 53 -5 56 -4 84 30 34 41 34 41 34 18z m-260 -87 c0 -8 -9 -15
-21 -15 -11 0 -18 -4 -15 -8 6 -9 -23 -26 -61 -37 -13 -4 -23 -2 -23 4 0 15
31 42 41 35 5 -3 21 4 35 15 32 25 44 26 44 6z m267 -71 c-3 -3 -12 -4 -19 -1
-8 3 -5 6 6 6 11 1 17 -2 13 -5z m-60 -20 c-3 -3 -12 -4 -19 -1 -8 3 -5 6 6 6
11 1 17 -2 13 -5z m460 -46 c-3 -8 -6 -5 -6 6 -1 11 2 17 5 13 3 -3 4 -12 1
-19z m38 12 c-13 -6 -15 -9 -5 -9 12 -1 13 -3 1 -10 -8 -5 -10 -14 -6 -21 5
-9 4 -11 -3 -6 -13 8 -16 39 -5 49 3 4 13 7 22 6 12 0 11 -3 -4 -9z m44 -5 c5
2 6 -6 4 -19 -3 -12 -11 -23 -19 -23 -16 0 -19 13 -4 22 5 3 8 11 6 18 -1 7
-1 9 1 4 3 -4 8 -5 12 -2z m202 -4 c-38 -7 -55 -31 -22 -31 12 0 21 -4 21 -9
0 -4 -11 -6 -25 -3 -20 3 -25 0 -25 -16 0 -15 8 -22 28 -25 22 -3 20 -4 -10
-6 -20 0 -39 2 -41 7 -2 4 4 26 15 50 17 39 21 42 56 41 l37 -2 -34 -6z m-986
-101 c-3 -5 -10 -10 -15 -10 -5 0 -21 -5 -37 -12 -30 -13 -39 -15 -65 -17 -10
0 -18 -8 -18 -16 0 -8 -9 -19 -20 -25 -17 -9 -20 -8 -20 8 0 22 56 66 75 58 8
-3 29 1 47 9 39 17 62 19 53 5z m105 -54 c0 -2 -21 -11 -47 -21 -47 -18 -113
-75 -113 -98 0 -23 -19 9 -22 38 -3 27 0 30 34 35 20 4 44 12 52 19 21 17 96
39 96 27z m187 -19 c-14 -10 0 -15 85 -28 63 -10 110 -13 120 -8 9 5 32 8 50
8 l33 -1 -30 -8 c-42 -10 -25 -14 148 -40 81 -12 146 -24 143 -27 -2 -2 -39 0
-81 6 -86 12 -141 13 -85 1 28 -6 30 -8 10 -9 l-25 -1 25 -20 c26 -20 20 -24
-29 -20 -16 1 -21 -2 -15 -11 5 -9 2 -11 -9 -6 -9 3 -19 3 -21 -2 -3 -4 -22
-8 -42 -9 -21 -1 -40 -5 -43 -10 -9 -12 -161 -15 -161 -3 0 6 -21 11 -47 11
-27 1 -58 1 -70 2 -26 0 -21 18 4 18 9 0 14 3 10 6 -3 3 -22 1 -42 -6 -20 -7
-35 -14 -32 -16 2 -2 64 -13 138 -24 166 -26 272 -48 238 -49 -15 -1 -64 5
-110 13 -46 8 -134 22 -195 31 l-111 18 -77 -28 c-42 -15 -79 -26 -82 -23 -2
3 26 17 63 30 l67 25 -97 18 c-54 10 -96 20 -93 22 2 2 45 -3 95 -11 117 -20
130 -20 166 5 25 17 26 19 7 14 -13 -4 -42 -3 -64 0 l-42 7 34 18 c20 11 28
19 20 22 -11 3 -10 6 4 11 11 5 15 3 10 -5 -5 -8 -2 -9 10 -5 10 4 22 7 27 7
6 0 8 4 4 9 -8 14 32 24 63 17 20 -5 23 -4 12 3 -11 8 1 9 40 6 l55 -4 -45 10
c-67 15 -75 14 -200 -28 -139 -48 -179 -58 -165 -44 9 9 329 120 345 120 3 0
-3 -6 -13 -12z m50 -3 c-3 -3 -12 -4 -19 -1 -8 3 -5 6 6 6 11 1 17 -2 13 -5z
m76 -11 c-7 -2 -19 -2 -25 0 -7 3 -2 5 12 5 14 0 19 -2 13 -5z m70 -10 c-7 -2
-21 -2 -30 0 -10 3 -4 5 12 5 17 0 24 -2 18 -5z m145 -20 c-10 -2 -26 -2 -35
0 -10 3 -2 5 17 5 19 0 27 -2 18 -5z m65 -10 c-7 -2 -21 -2 -30 0 -10 3 -4 5
12 5 17 0 24 -2 18 -5z m-808 -27 c6 -2 -9 -9 -32 -15 -34 -9 -48 -9 -75 3
-27 12 -29 15 -11 15 12 1 24 5 27 10 5 8 36 3 91 -13z m873 17 c-10 -2 -26
-2 -35 0 -10 3 -2 5 17 5 19 0 27 -2 18 -5z m59 -9 c-3 -3 -12 -4 -19 -1 -8 3
-5 6 6 6 11 1 17 -2 13 -5z m-1047 -35 c16 0 4 -7 -35 -20 -33 -10 -66 -16
-74 -14 -8 3 -18 0 -22 -6 -5 -8 -18 -9 -45 -2 l-39 10 57 17 c32 10 68 14 85
11 22 -5 25 -4 13 5 -12 10 -10 11 10 6 14 -3 36 -6 50 -7z m1127 -5 c-3 -3
-12 -4 -19 -1 -8 3 -5 6 6 6 11 1 17 -2 13 -5z m-967 -8 c0 -7 -221 -78 -226
-73 -3 3 41 21 98 40 100 34 128 42 128 33z m35 -125 c-6 -5 -23 -12 -40 -16
l-30 -6 30 15 c35 17 53 20 40 7z m662 -7 c-3 -3 -12 -4 -19 -1 -8 3 -5 6 6 6
11 1 17 -2 13 -5z"/>
<path d="M1028 273 c7 -3 16 -2 19 1 4 3 -2 6 -13 5 -11 0 -14 -3 -6 -6z"/>
<path d="M1248 243 c6 -2 18 -2 25 0 6 3 1 5 -13 5 -14 0 -19 -2 -12 -5z"/>
<path d="M790 220 c-8 -5 -11 -12 -7 -17 5 -4 11 -2 15 4 4 6 16 13 27 16 l20
5 -20 1 c-11 0 -27 -3 -35 -9z"/>
<path d="M255 190 c-3 -5 -1 -10 4 -10 6 0 11 5 11 10 0 6 -2 10 -4 10 -3 0
-8 -4 -11 -10z"/>
<path d="M403 915 c0 -8 4 -15 9 -15 4 0 8 7 8 15 0 8 -4 15 -8 15 -5 0 -9 -7
-9 -15z"/>
</g>
</svg>
